<svg width="40" height="36" viewBox="0 0 40 36" fill="none" xmlns="http://www.w3.org/2000/svg" xmlns:xlink="http://www.w3.org/1999/xlink">
<path d="M22.1,2.28L22.1,2.16C22.1,1.6 22.28,1.1 22.64,0.66C23,0.22 23.46,0 24.02,0C24.58,0 25.08,0.18 25.52,0.54C25.96,0.9 26.2,1.38 26.24,1.98C26.28,2.58 26.1,3.08 25.7,3.48C25.3,3.88 24.82,4.08 24.26,4.08L23.9,4.2L24.02,4.38L23.9,5.04L23.66,6.96C23.74,7.04 23.78,7.12 23.78,7.2L23.54,8.4C23.46,8.56 23.38,8.68 23.3,8.76L23.18,9.24C23.02,9.88 22.88,10.4 22.76,10.8C22.64,11.2 22.54,11.52 22.46,11.76L22.46,12C22.38,12.4 22.32,12.72 22.28,12.96C22.24,13.2 22.1,13.6 21.86,14.16C21.7,14.48 21.7,15 21.86,15.72L21.98,15.84C21.98,16.08 22.08,16.36 22.28,16.68C22.48,17 22.58,17.28 22.58,17.52C22.66,19.12 22.54,20.48 22.22,21.6L22.46,22.32C23.42,22.8 23.7,23.32 23.3,23.88L23.9,24.12C24.86,24.6 25.54,25.02 25.94,25.38C26.34,25.74 26.74,26.12 27.14,26.52C27.46,26.6 27.7,26.72 27.86,26.88L28.22,27C29.9,28.12 31.58,29.48 33.26,31.08L33.74,31.44L33.74,31.56L33.62,31.8L33.98,32.04L34.1,32.04C34.34,32.2 34.5,32.28 34.58,32.28L34.7,32.28C34.78,32.28 34.86,32.24 34.94,32.16L35.18,32.04C35.34,31.88 35.5,31.76 35.66,31.68L36.14,31.68C36.22,31.68 36.22,31.72 36.14,31.8L35.66,32.04L35.06,32.76L35.9,32.76L36.74,32.88C36.98,32.8 37.18,32.72 37.34,32.64L37.94,32.28C38.18,32.2 38.42,32.28 38.66,32.52L38.78,32.52C38.86,32.6 38.82,32.72 38.66,32.88L37.22,34.2C36.82,34.52 36.46,34.72 36.14,34.8L34.58,35.88C34.5,35.96 34.42,35.96 34.34,35.88L33.98,35.4L33.74,34.92L33.44,34.5L33.08,34.02L32.78,33.66L32.54,33.36L32.06,33C31.9,33 31.74,32.96 31.58,32.88L30.02,31.68C29.78,31.68 29.5,31.56 29.18,31.32C27.98,30.28 27.18,29.64 26.78,29.4L26.06,28.92L24.62,28.68C24.14,28.6 23.5,28.36 22.7,27.96L21.74,27.48C21.1,27.16 20.66,27 20.42,27L19.94,26.76C19.62,26.68 19.38,26.6 19.22,26.52L18.98,26.28C18.82,26.28 18.66,26.32 18.5,26.4L16.1,27.6L13.1,28.92C12.3,29.56 11.54,30.08 10.82,30.48L9.5,31.08L7.46,32.52C7.3,32.68 7.14,32.68 6.98,32.52L6.74,32.76C6.5,32.84 6.34,32.88 6.26,32.88L5.78,33.12L5.78,33.36L5.54,33.36L5.3,33.72C5.14,34.04 4.98,34.22 4.82,34.26C4.66,34.3 4.56,34.36 4.52,34.44C4.48,34.52 4.44,34.58 4.4,34.62L4.16,34.86L3.8,35.1L3.26,35.04L2.54,35.16L2.06,35.28C1.66,35.36 1.34,35.3 1.1,35.1C0.86,34.9 0.66,34.6 0.5,34.2C0.34,33.96 0.42,33.76 0.74,33.6L0.86,33.48C0.94,33.4 1.06,33.36 1.22,33.36L1.94,33.36L2.9,33L3.38,32.88C3.38,32.72 3.42,32.6 3.5,32.52C3.58,32.44 3.7,32.4 3.86,32.4L3.86,32.28C3.78,32.12 3.74,31.96 3.74,31.8C3.66,31.64 3.64,31.52 3.68,31.44C3.72,31.36 3.76,31.32 3.8,31.32L3.86,31.32L3.98,31.68C4.06,32.08 4.18,32.2 4.34,32.04L4.46,31.8C4.54,31.64 4.66,31.56 4.82,31.56L5.06,31.8L5.3,31.56L5.18,31.44C5.18,31.36 5.22,31.32 5.3,31.32L5.78,30.84C6.18,30.36 6.66,29.92 7.22,29.52C8.34,28.64 9.54,27.96 10.82,27.48C11.22,27.08 11.66,26.88 12.14,26.88C12.46,26.32 12.94,25.72 13.58,25.08C14.14,24.68 14.54,24.4 14.78,24.24C14.94,23.92 15.14,23.76 15.38,23.76L15.5,23.76L15.74,23.52C15.9,23.44 16.02,23.36 16.1,23.28L16.1,22.68C16.1,22.28 16.14,21.96 16.22,21.72C16.3,21.48 16.5,21.36 16.82,21.36L17.3,20.88C17.14,20.56 17.06,20.2 17.06,19.8L16.94,19.8C16.78,19.56 16.7,19.32 16.7,19.08C16.46,18.68 16.3,18.36 16.22,18.12L15.86,18.12C15.78,18.36 15.58,18.52 15.26,18.6L15.14,18.84C14.82,19.4 14.54,19.82 14.3,20.1C14.06,20.38 13.62,20.72 12.98,21.12C12.58,21.52 12.3,21.96 12.14,22.44C12.06,22.68 12.06,22.92 12.14,23.16L12.02,23.4L12.14,23.4C12.14,23.56 12.18,23.64 12.26,23.64L12.38,23.64C12.54,23.72 12.62,23.82 12.62,23.94C12.62,24.06 12.5,24.1 12.26,24.06C12.02,24.02 11.84,23.94 11.72,23.82C11.6,23.7 11.5,23.64 11.42,23.64L11.06,24C10.9,24.24 10.74,24.34 10.58,24.3C10.42,24.26 10.38,24.2 10.46,24.12L10.58,24C10.66,23.84 10.66,23.76 10.58,23.76L9.62,24C9.54,24.08 9.44,24.08 9.32,24C9.2,23.92 9.22,23.84 9.38,23.76L9.98,23.52C9.98,23.44 9.94,23.4 9.86,23.4C9.54,23.56 9.22,23.6 8.9,23.52L8.3,23.4L8.18,23.28C8.18,23.2 8.22,23.16 8.3,23.16C8.62,23.24 9.02,23.2 9.5,23.04L10.34,22.68L11.3,21.6L11.42,21.36C11.74,20.72 12.08,20.14 12.44,19.62C12.8,19.1 13.18,18.68 13.58,18.36L13.7,17.88C13.86,17.56 14.02,17.28 14.18,17.04C14.34,16.8 14.54,16.48 14.78,16.08L15.14,15.6C15.46,15.12 15.82,14.88 16.22,14.88L16.58,14.52C16.66,14.44 16.7,14.32 16.7,14.16L16.94,13.92L16.82,13.8C16.34,13.4 16.1,13.04 16.1,12.72C16.02,12.16 16.2,11.68 16.64,11.28C17.08,10.88 17.52,10.7 17.96,10.74C18.4,10.78 18.74,10.92 18.98,11.16L19.22,11.4C19.3,11.4 19.34,11.44 19.34,11.52L19.82,11.76L19.82,12.12C19.98,12.28 20.06,12.4 20.06,12.48C20.22,12.24 20.46,11.96 20.78,11.64L21.38,9.72C21.38,9.4 21.46,9.08 21.62,8.76L21.86,8.4L21.86,8.16L22.22,6.72L22.46,6.72L22.82,5.28C22.9,5.04 22.9,4.76 22.82,4.44L22.34,3.24L22.1,2.28Z" fill="#111111"/>
</svg>
