<svg width="38" height="36" viewBox="0 0 38 36" fill="none" xmlns="http://www.w3.org/2000/svg" xmlns:xlink="http://www.w3.org/1999/xlink">
<path d="M15,27.5L15.003,26L14.998,26L15,27.5ZM5.454,23.546L6.516,22.487L6.513,22.484L5.454,23.546ZM1.5,14L3,14.002L3,14L1.5,14ZM5.454,4.454L6.515,5.515L6.516,5.513L5.454,4.454ZM15,0.5L14.998,2L15,2L15,0.5ZM24.546,4.454L23.485,5.515L23.487,5.516L24.546,4.454ZM28.5,14L27,13.998L27,14.002L28.5,14ZM26.658,20.814L27.952,21.573L27.953,21.572L26.658,20.814ZM21.153,24.305C19.295,25.418 17.169,26.004 15.003,26L14.997,29C17.708,29.005 20.369,28.272 22.695,26.879L21.153,24.305ZM14.998,26C13.422,26.002 11.862,25.693 10.406,25.09L9.258,27.862C11.079,28.616 13.031,29.003 15.002,29L14.998,26ZM10.406,25.09C8.951,24.487 7.629,23.602 6.516,22.487L4.392,24.605C5.784,26.001 7.438,27.107 9.258,27.862L10.406,25.09ZM6.513,22.484C5.398,21.371 4.513,20.049 3.91,18.594L1.138,19.742C1.893,21.563 2.999,23.216 4.395,24.608L6.513,22.484ZM3.91,18.594C3.307,17.138 2.998,15.578 3,14.002L0,13.998C-0.003,15.969 0.384,17.921 1.138,19.742L3.91,18.594ZM3,14C3,10.686 4.341,7.689 6.515,5.515L4.393,3.393C1.679,6.107 0,9.858 0,14L3,14ZM6.516,5.513C7.629,4.398 8.951,3.513 10.406,2.91L9.258,0.138C7.438,0.893 5.784,1.999 4.392,3.395L6.516,5.513ZM10.406,2.91C11.862,2.307 13.422,1.998 14.998,2L15.002,-1C13.031,-1.003 11.079,-0.616 9.258,0.138L10.406,2.91ZM15,2C18.314,2 21.311,3.341 23.485,5.515L25.607,3.393C22.893,0.679 19.142,-1 15,-1L15,2ZM23.487,5.516C24.602,6.629 25.487,7.951 26.09,9.406L28.862,8.258C28.107,6.438 27.001,4.784 25.605,3.392L23.487,5.516ZM26.09,9.406C26.693,10.862 27.002,12.422 27,13.998L30,14.002C30.003,12.031 29.616,10.079 28.862,8.258L26.09,9.406ZM27,14.002C27.003,16.13 26.438,18.22 25.363,20.056L27.953,21.572C29.297,19.274 30.004,16.66 30,13.998L27,14.002ZM25.364,20.055C24.024,22.341 24.193,25.315 26.175,27.297L28.297,25.175C27.387,24.265 27.224,22.815 27.952,21.573L25.364,20.055ZM26.175,27.297L33.881,35.003L36.003,32.881L28.297,25.175L26.175,27.297Z" fill="#111111"/>
</svg>
