<svg width="38" height="60" viewBox="0 0 38 60" fill="none" xmlns="http://www.w3.org/2000/svg" xmlns:xlink="http://www.w3.org/1999/xlink">
<path d="M31.1,-0.36C29.767,-0.36 28.634,0.107 27.7,1.04L-0.1,28.84L27.7,56.64C28.634,57.573 29.767,58.04 31.1,58.04C32.434,58.04 33.6,57.573 34.6,56.64C35.6,55.707 36.1,54.573 36.1,53.24C36.1,51.907 35.567,50.707 34.5,49.64L13.7,28.84L34.5,8.04C35.567,7.107 36.1,5.94 36.1,4.54C36.1,3.14 35.6,1.973 34.6,1.04C33.6,0.107 32.434,-0.36 31.1,-0.36Z" fill="#111111"/>
</svg>
