<svg width="60" height="62" viewBox="0 0 60 62" fill="none" xmlns="http://www.w3.org/2000/svg" xmlns:xlink="http://www.w3.org/1999/xlink">
<path d="M30,0.22C24.532,0.22 19.5,1.552 14.9,4.22C10.364,6.822 6.602,10.584 4,15.12C1.333,19.72 0,24.752 0,30.22C0,35.687 1.333,40.72 4,45.32C6.602,49.855 10.364,53.617 14.9,56.22C19.5,58.887 24.532,60.22 30,60.22C35.467,60.22 40.5,58.887 45.1,56.22C49.636,53.617 53.398,49.855 56,45.32C58.667,40.72 60,35.687 60,30.22C60,24.752 58.667,19.72 56,15.12C53.398,10.584 49.636,6.822 45.1,4.22C40.5,1.552 35.467,0.22 30,0.22ZM37.8,30.22L32.8,30.22L32.8,48.22L26,48.22L26,30.22L21.6,30.22L21.6,24.02L26,24.02L26,20.22C26,17.42 26.468,15.42 27.4,14.22C28.468,12.752 30.4,12.02 33.2,12.02L38.2,12.02L38.2,18.22L35.2,18.22C34.132,18.22 33.467,18.387 33.2,18.72C32.932,19.052 32.8,19.687 32.8,20.62L32.8,23.62L38.2,23.62L37.8,30.22Z" fill="#7E7E7E"/>
</svg>
