<svg width="36" height="38" viewBox="0 0 36 38" fill="none" xmlns="http://www.w3.org/2000/svg" xmlns:xlink="http://www.w3.org/1999/xlink">
<path d="M10.5,7L12,7L10.5,7ZM15,2.5L15,1L15,2.5ZM1.5,11.5L1.5,10L0,10L0,11.5L1.5,11.5ZM1.5,28L0,28L1.5,28ZM34.5,11.5L36,11.5L36,10L34.5,10L34.5,11.5ZM12,11.5L12,7L9,7L9,11.5L12,11.5ZM12,7C12,6.204 12.316,5.441 12.879,4.879L10.757,2.757C9.632,3.883 9,5.409 9,7L12,7ZM12.879,4.879C13.441,4.316 14.204,4 15,4L15,1C13.409,1 11.883,1.632 10.757,2.757L12.879,4.879ZM15,4L21,4L21,1L15,1L15,4ZM21,4C21.796,4 22.559,4.316 23.121,4.879L25.243,2.757C24.117,1.632 22.591,1 21,1L21,4ZM23.121,4.879C23.684,5.441 24,6.204 24,7L27,7C27,5.409 26.368,3.883 25.243,2.757L23.121,4.879ZM24,7C24,7.796 23.684,8.559 23.121,9.121L25.243,11.243C26.368,10.117 27,8.591 27,7L24,7ZM23.121,9.121C22.559,9.684 21.796,10 21,10L21,13C22.591,13 24.117,12.368 25.243,11.243L23.121,9.121ZM21,10L1.5,10L1.5,13L21,13L21,10ZM0,11.5L0,28L3,28L3,11.5L0,11.5ZM0,28C0,30.387 0.948,32.676 2.636,34.364L4.757,32.243C3.632,31.117 3,29.591 3,28L0,28ZM2.636,34.364C4.324,36.052 6.613,37 9,37L9,34C7.409,34 5.883,33.368 4.757,32.243L2.636,34.364ZM9,37L27,37L27,34L9,34L9,37ZM27,37C29.387,37 31.676,36.052 33.364,34.364L31.243,32.243C30.117,33.368 28.591,34 27,34L27,37ZM33.364,34.364C35.052,32.676 36,30.387 36,28L33,28C33,29.591 32.368,31.117 31.243,32.243L33.364,34.364ZM36,28L36,11.5L33,11.5L33,28L36,28ZM34.5,10L29,10L29,13L34.5,13L34.5,10Z" fill="#111111"/>
</svg>
