<svg width="20" height="28" viewBox="0 0 20 28" fill="none" xmlns="http://www.w3.org/2000/svg" xmlns:xlink="http://www.w3.org/1999/xlink">
<path d="M0.625,9.471C0.625,6.985 1.613,4.6 3.371,2.842C5.129,1.084 7.514,0.096 10,0.096C12.486,0.096 14.871,1.084 16.629,2.842C18.387,4.6 19.375,6.985 19.375,9.471C19.375,10.977 18.894,12.691 18.208,14.381C17.514,16.086 16.58,17.84 15.608,19.45C14.72,20.917 13.757,22.338 12.724,23.706C11.864,24.837 11.079,25.746 10.585,26.14C10.419,26.273 10.213,26.345 10,26.345C9.787,26.345 9.581,26.273 9.415,26.14C8.921,25.746 8.136,24.837 7.276,23.706C6.243,22.338 5.281,20.917 4.394,19.45C3.419,17.84 2.486,16.086 1.794,14.38C1.106,12.691 0.625,10.977 0.625,9.471ZM10,13.532C11.077,13.532 12.111,13.104 12.873,12.343C13.634,11.581 14.063,10.547 14.063,9.47C14.063,8.392 13.634,7.359 12.873,6.597C12.111,5.835 11.077,5.407 10,5.407C8.923,5.407 7.889,5.835 7.127,6.597C6.366,7.359 5.938,8.392 5.938,9.47C5.938,10.547 6.366,11.581 7.127,12.343C7.889,13.104 8.923,13.532 10,13.532Z" clip-rule="evenodd" fill-rule="evenodd" fill="#FFFFFF"/>
</svg>
