<svg width="60" height="62" viewBox="0 0 60 62" fill="none" xmlns="http://www.w3.org/2000/svg" xmlns:xlink="http://www.w3.org/1999/xlink">
<path d="M28.2,44.22C28.089,44.46 27.916,44.667 27.7,44.82C27.525,44.945 27.316,45.015 27.1,45.02C26.9,45.02 26.767,44.952 26.7,44.82C26.623,44.63 26.589,44.425 26.6,44.22L26.6,36.82L24.8,36.82L24.8,45.02C24.78,45.472 24.884,45.922 25.1,46.32C25.3,46.652 25.6,46.82 26,46.82C26.4,46.82 26.767,46.687 27.1,46.42C27.433,46.152 27.8,45.82 28.2,45.42L28.2,46.62L30,46.62L30,36.82L28.2,36.82L28.2,44.22ZM17.4,35.22L17.4,33.22L24,33.22L24,35.22L21.8,35.22L21.8,46.62L19.6,46.62L19.6,35.22L17.4,35.22ZM29.8,23.42C29.532,23.42 29.3,23.32 29.1,23.12C29.005,23.03 28.929,22.921 28.878,22.801C28.826,22.68 28.8,22.551 28.8,22.42L28.8,16.42C28.8,16.287 28.868,16.152 29,16.02C29.133,15.887 29.368,15.82 29.7,15.82C30.033,15.82 30.3,15.887 30.5,16.02C30.598,16.085 30.677,16.175 30.73,16.28C30.782,16.385 30.807,16.502 30.8,16.62L30.8,22.42C30.8,22.687 30.7,22.92 30.5,23.12C30.41,23.215 30.301,23.291 30.181,23.342C30.061,23.394 29.931,23.42 29.8,23.42ZM34.8,44.22C34.8,42.62 34.868,40.952 35,39.22C35,38.952 34.9,38.72 34.7,38.52C34.5,38.32 34.3,38.22 34.1,38.22L33.8,38.22L33.2,38.62L33.2,44.62L33.8,45.02L34.2,45.22C34.468,45.22 34.632,45.152 34.7,45.02C34.768,44.887 34.8,44.62 34.8,44.22ZM35,36.62C35.533,36.62 35.968,36.82 36.3,37.22C36.632,37.62 36.8,38.22 36.8,39.02L36.8,44.62C36.8,45.287 36.667,45.82 36.4,46.22C36.29,46.406 36.125,46.553 35.929,46.643C35.732,46.732 35.512,46.759 35.3,46.72C34.89,46.667 34.487,46.567 34.1,46.42C33.799,46.315 33.55,46.101 33.4,45.82L33.4,46.62L31.4,46.62L31.4,33.22L33.4,33.22L33.4,37.62C33.667,37.352 33.932,37.12 34.2,36.92C34.426,36.735 34.708,36.629 35,36.62ZM44.8,49.42C45.467,48.887 45.868,47.152 46,44.22C46.132,42.752 46.267,41.352 46.4,40.02C46.4,38.82 46.267,37.487 46,36.02C45.732,33.087 45.3,31.287 44.7,30.62C44.1,29.952 41.533,29.487 37,29.22L30.4,29.02L23.6,29.22C19.068,29.487 16.5,29.952 15.9,30.62C15.3,31.287 14.868,33.087 14.6,36.02C14.467,37.349 14.4,38.684 14.4,40.02C14.4,41.352 14.467,42.752 14.6,44.22C14.868,47.152 15.3,48.92 15.9,49.52C16.5,50.12 19.068,50.62 23.6,51.02L30.4,51.22L37,51.02C41.533,50.62 44.132,50.152 44.8,49.62L44.8,49.42ZM21,10.22L18.6,10.22L21.4,19.22L21.4,24.82L23.8,24.82L23.8,18.82L26.6,10.22L24.2,10.22L22.8,16.02L22.6,16.02L21,10.22ZM26.8,16.62L26.8,22.22C26.8,23.152 27.067,23.887 27.6,24.42C28.132,24.952 28.868,25.22 29.8,25.22C30.733,25.22 31.468,24.952 32,24.42C32.533,23.887 32.8,23.152 32.8,22.22L32.8,16.62C32.8,15.82 32.533,15.152 32,14.62C31.468,14.087 30.733,13.82 29.8,13.82C28.868,13.82 28.132,14.087 27.6,14.62C27.067,15.152 26.8,15.82 26.8,16.62ZM34.6,14.22L34.6,23.22C34.58,23.672 34.684,24.122 34.9,24.52C35.1,24.852 35.432,25.02 35.9,25.02C36.368,25.02 36.8,24.92 37.2,24.72C37.6,24.52 38,24.22 38.4,23.82L38.4,25.02L40.6,25.02L40.6,14.22L38.4,14.22L38.4,22.22C38.272,22.481 38.061,22.692 37.8,22.82C37.585,22.939 37.346,23.007 37.1,23.02C36.9,23.02 36.768,22.987 36.7,22.92C36.632,22.852 36.6,22.687 36.6,22.42L36.6,14.02L34.6,14.02L34.6,14.22ZM30,0.22C35.467,0.22 40.5,1.552 45.1,4.22C49.636,6.822 53.398,10.584 56,15.12C58.667,19.72 60,24.752 60,30.22C60,35.687 58.667,40.72 56,45.32C53.398,49.855 49.636,53.617 45.1,56.22C40.5,58.887 35.467,60.22 30,60.22C24.532,60.22 19.5,58.887 14.9,56.22C10.364,53.617 6.602,49.855 4,45.32C1.333,40.72 0,35.687 0,30.22C0,24.752 1.333,19.72 4,15.12C6.602,10.584 10.364,6.822 14.9,4.22C19.5,1.552 24.532,0.22 30,0.22ZM41.4,40.42L41.2,39.42C41.2,39.02 41.132,38.72 41,38.52C40.935,38.422 40.845,38.343 40.74,38.29C40.635,38.237 40.517,38.213 40.4,38.22C40.283,38.213 40.165,38.237 40.06,38.29C39.955,38.343 39.865,38.422 39.8,38.52C39.667,38.72 39.6,39.02 39.6,39.42L39.6,40.42L41.4,40.42ZM40.6,36.62C41.4,36.62 42.033,36.852 42.5,37.32C42.967,37.787 43.2,38.487 43.2,39.42L43.2,41.82L39.6,41.82L39.6,43.82C39.6,44.22 39.667,44.52 39.8,44.72C39.932,44.92 40.168,45.02 40.5,45.02C40.833,45.02 41.067,44.92 41.2,44.72C41.333,44.52 41.4,44.152 41.4,43.62L41.4,43.22L43.2,43.22L43.2,43.82C43.2,44.752 42.967,45.487 42.5,46.02C42.033,46.552 41.368,46.82 40.5,46.82C39.633,46.82 38.967,46.552 38.5,46.02C38.032,45.487 37.8,44.752 37.8,43.82L37.8,39.42C37.8,38.62 38.067,37.952 38.6,37.42C39.132,36.887 39.8,36.62 40.6,36.62Z" fill="#7E7E7E"/>
</svg>
