<svg width="60" height="62" viewBox="0 0 60 62" fill="none" xmlns="http://www.w3.org/2000/svg" xmlns:xlink="http://www.w3.org/1999/xlink">
<path d="M30,0.22C24.532,0.22 19.5,1.552 14.9,4.22C10.364,6.822 6.602,10.584 4,15.12C1.333,19.72 0,24.752 0,30.22C0,35.687 1.333,40.72 4,45.32C6.602,49.855 10.364,53.617 14.9,56.22C19.5,58.887 24.532,60.22 30,60.22C35.467,60.22 40.5,58.887 45.1,56.22C49.636,53.617 53.398,49.855 56,45.32C58.667,40.72 60,35.687 60,30.22C60,24.752 58.667,19.72 56,15.12C53.398,10.584 49.636,6.822 45.1,4.22C40.5,1.552 35.467,0.22 30,0.22ZM45,23.42L45,24.42C45,27.887 44.167,31.22 42.5,34.42C40.856,37.595 38.408,40.285 35.4,42.22C32.068,44.352 28.333,45.42 24.2,45.42C20.174,45.45 16.222,44.341 12.8,42.22L14.6,42.22C18.068,42.22 21.133,41.152 23.8,39.02C22.2,39.02 20.767,38.52 19.5,37.52C18.232,36.52 17.333,35.22 16.8,33.62L18.2,34.02C19.132,34.02 19.8,33.887 20.2,33.62C18.498,33.372 16.958,32.476 15.9,31.12C14.797,29.803 14.194,28.138 14.2,26.42C15.268,27.087 16.4,27.42 17.6,27.42C15.333,26.087 14.2,24.02 14.2,21.22C14.2,19.887 14.533,18.62 15.2,17.42C17.2,19.82 19.5,21.687 22.1,23.02C24.739,24.363 27.64,25.114 30.6,25.22C30.332,24.82 30.2,24.22 30.2,23.42C30.2,21.42 30.933,19.687 32.4,18.22C33.868,16.752 35.6,16.02 37.6,16.02C39.6,16.02 41.468,16.752 43.2,18.22C44.4,17.952 46,17.352 48,16.42C47.468,18.287 46.4,19.62 44.8,20.42L45,20.42C46.868,20.02 48.2,19.62 49,19.22C47.667,20.952 46.333,22.352 45,23.42Z" fill="#7E7E7E"/>
</svg>
