<svg width="60" height="62" viewBox="0 0 60 62" fill="none" xmlns="http://www.w3.org/2000/svg" xmlns:xlink="http://www.w3.org/1999/xlink">
<path d="M40,31.42C39.745,32.723 39.271,33.974 38.6,35.12C37.936,36.25 37.052,37.236 36,38.02C34.609,39.06 32.935,39.653 31.2,39.72C29.486,39.791 27.787,39.375 26.3,38.52C24.784,37.671 23.563,36.381 22.8,34.82C21.6,32.42 21.333,29.887 22,27.22L19.2,27.22L19.4,41.02C19.4,41.287 19.5,41.552 19.7,41.82C19.9,42.087 20.132,42.22 20.4,42.22L41.2,42.22C41.467,42.22 41.732,42.087 42,41.82C42.267,41.552 42.4,41.287 42.4,41.02L42.4,27.22L39.6,27.22C40,28.552 40.132,29.952 40,31.42ZM30.8,36.42C32.4,36.42 33.8,35.82 35,34.62C36.2,33.42 36.8,31.987 36.8,30.32C36.814,28.69 36.206,27.117 35.1,25.92C33.967,24.652 32.567,24.02 30.9,24.02C29.233,24.02 27.8,24.62 26.6,25.82C25.4,27.02 24.8,28.452 24.8,30.12C24.8,31.787 25.368,33.252 26.5,34.52C27.633,35.787 29,36.42 30.6,36.42L30.8,36.42ZM41.2,17.42L38.4,17.42C38.132,17.42 37.868,17.552 37.6,17.82C37.333,18.087 37.2,18.352 37.2,18.62L37.2,22.02C37.467,22.552 37.868,22.82 38.4,22.82L41.2,22.82C41.6,22.82 41.9,22.687 42.1,22.42C42.285,22.193 42.391,21.912 42.4,21.62L42.4,18.62C42.4,18.352 42.267,18.087 42,17.82C41.732,17.552 41.467,17.42 41.2,17.42ZM30,0.22C24.532,0.22 19.5,1.552 14.9,4.22C10.364,6.822 6.602,10.584 4,15.12C1.333,19.72 0,24.752 0,30.22C0,35.687 1.333,40.72 4,45.32C6.602,49.855 10.364,53.617 14.9,56.22C19.5,58.887 24.532,60.22 30,60.22C35.467,60.22 40.5,58.887 45.1,56.22C49.636,53.617 53.398,49.855 56,45.32C58.667,40.72 60,35.687 60,30.22C60,24.752 58.667,19.72 56,15.12C53.398,10.584 49.636,6.822 45.1,4.22C40.5,1.552 35.467,0.22 30,0.22ZM45.6,42.42L45.4,42.62L45.4,42.82C45.406,43.136 45.346,43.45 45.226,43.742C45.106,44.035 44.927,44.299 44.7,44.52C44.237,44.984 43.645,45.298 43,45.42L18.8,45.42C18.475,45.422 18.153,45.351 17.859,45.213C17.565,45.074 17.306,44.872 17.1,44.62C16.645,44.11 16.335,43.489 16.2,42.82L16,42.42L16.2,17.82C16.2,17.152 16.432,16.552 16.9,16.02C17.368,15.487 17.932,15.152 18.6,15.02L42.8,15.02C43.444,15.141 44.037,15.455 44.5,15.92C44.965,16.383 45.278,16.975 45.4,17.62L45.6,42.42Z" fill="#7E7E7E"/>
</svg>
