<svg width="42" height="40" viewBox="0 0 42 40" fill="none" xmlns="http://www.w3.org/2000/svg" xmlns:xlink="http://www.w3.org/1999/xlink">
<path d="M29.588,2.5L29.584,4L29.588,4L29.588,2.5ZM36.596,5.402L37.658,4.342L37.656,4.341L36.596,5.402ZM39.495,12.41L37.995,12.41L39.495,12.41ZM36.596,19.418L37.657,20.479L37.658,20.478L36.596,19.418ZM20,36.016L18.939,37.077L20,38.137L21.061,37.077L20,36.016ZM3.402,19.418L2.34,20.478L2.341,20.479L3.402,19.418ZM3.402,5.404L4.464,6.464L4.466,6.462L3.402,5.404ZM10.41,2.5L10.406,4L10.41,4L10.41,2.5ZM17.418,5.402L18.479,4.341L18.478,4.341L17.418,5.402ZM18.938,6.922L19.999,5.861L19.999,5.861L18.938,6.922ZM20,7.984L18.939,9.045L20.001,10.106L21.062,9.044L20,7.984ZM21.06,6.922L19.999,5.861L19.998,5.862L21.06,6.922ZM22.58,5.402L23.641,6.463L23.643,6.46L22.58,5.402ZM29.588,4C31.838,4 33.945,4.874 35.536,6.463L37.656,4.341C35.503,2.19 32.634,1 29.588,1L29.588,4ZM35.534,6.462C37.11,8.04 37.995,10.18 37.995,12.41L40.995,12.41C40.995,9.385 39.795,6.483 37.658,4.342L35.534,6.462ZM37.995,12.41C37.995,14.64 37.11,16.78 35.534,18.358L37.658,20.478C39.795,18.337 40.995,15.435 40.995,12.41L37.995,12.41ZM35.535,18.357L18.939,34.955L21.061,37.077L37.657,20.479L35.535,18.357ZM21.061,34.955L4.463,18.357L2.341,20.479L18.939,37.077L21.061,34.955ZM4.464,18.359C2.889,16.78 2.004,14.641 2.004,12.411L-0.996,12.411C-0.996,15.436 0.204,18.337 2.34,20.478L4.464,18.359ZM2.004,12.411C2.004,10.181 2.889,8.042 4.464,6.464L2.34,4.345C0.204,6.485 -0.996,9.386 -0.996,12.411L2.004,12.411ZM4.466,6.462C5.244,5.679 6.17,5.058 7.189,4.636L6.041,1.864C4.655,2.439 3.396,3.282 2.338,4.346L4.466,6.462ZM7.189,4.636C8.209,4.213 9.302,3.997 10.406,4L10.414,1C8.913,0.996 7.427,1.29 6.041,1.864L7.189,4.636ZM10.41,4C12.66,4 14.767,4.874 16.358,6.463L18.478,4.341C16.325,2.19 13.456,1 10.41,1L10.41,4ZM16.357,6.463L17.877,7.983L19.999,5.861L18.479,4.341L16.357,6.463ZM17.877,7.983L18.939,9.045L21.061,6.923L19.999,5.861L17.877,7.983ZM21.062,9.044L22.122,7.982L19.998,5.862L18.938,6.924L21.062,9.044ZM22.121,7.983L23.641,6.463L21.519,4.341L19.999,5.861L22.121,7.983ZM23.643,6.46C24.422,5.678 25.348,5.058 26.367,4.635L25.22,1.864C23.834,2.438 22.575,3.281 21.517,4.344L23.643,6.46ZM26.367,4.635C27.387,4.213 28.48,3.997 29.584,4L29.592,1C28.092,0.996 26.606,1.29 25.22,1.864L26.367,4.635Z" fill="#111111"/>
</svg>
